<svg id="Capa_1" data-name="Capa 1" xmlns="http://www.w3.org/2000/svg" viewBox="0 0 512 512"><defs><style>.cls-1{fill:#868dad;}.cls-2{fill:#fff;}</style></defs><title>as-portfolio</title><path class="cls-1" d="M465,353.39V158.61a40.32,40.32,0,0,0-20.16-34.92L276.16,26.31a40.32,40.32,0,0,0-40.32,0L67.16,123.69A40.32,40.32,0,0,0,47,158.61V353.39a40.32,40.32,0,0,0,20.16,34.92l168.68,97.39a40.32,40.32,0,0,0,40.32,0l168.68-97.39A40.32,40.32,0,0,0,465,353.39Z"/><g id="_Grupo_" data-name="&lt;Grupo&gt;"><path id="_Trazado_" data-name="&lt;Trazado&gt;" class="cls-2" d="M252.39,149.19c-.33,0-.33,0-.67.33C251.72,149.19,252.06,149.19,252.39,149.19Z"/><path id="_Trazado_2" data-name="&lt;Trazado&gt;" class="cls-2" d="M252.39,150.19c0-.33.33,0,.67,0C253.06,150.52,252.72,150.19,252.39,150.19Z"/><path id="_Trazado_3" data-name="&lt;Trazado&gt;" class="cls-2" d="M252.06,150.19l-.33.33A.33.33,0,0,1,252.06,150.19Z"/><path id="_Trazado_4" data-name="&lt;Trazado&gt;" class="cls-2" d="M256.38,152.19c.33.33.33,1.33.33,2-.33-.33,0-.67,0-1C256.38,152.85,256.05,152.52,256.38,152.19Z"/><path id="_Trazado_5" data-name="&lt;Trazado&gt;" class="cls-2" d="M249.4,152.85h0c.33-.33,0,.33,0,0Z"/><path id="_Trazado_6" data-name="&lt;Trazado&gt;" class="cls-2" d="M249.4,153.18c.33,0,0,.33,0,.33v.67C249.06,154.18,249.4,153.85,249.4,153.18Z"/><path id="_Trazado_7" data-name="&lt;Trazado&gt;" class="cls-2" d="M253.39,154.52h0a12.47,12.47,0,0,1,.33,3.33c-.33,0,0-.33,0-.67v-3c0,1-.33.67-.33.33Z"/><path id="_Trazado_8" data-name="&lt;Trazado&gt;" class="cls-2" d="M252.06,154.52c.33,0,0,.33.33.67C252.06,155.18,252.06,154.85,252.06,154.52Z"/><path id="_Trazado_9" data-name="&lt;Trazado&gt;" class="cls-2" d="M255.39,154.52c.33,0,0,.33,0,.33C255.05,154.85,255.39,154.85,255.39,154.52Z"/><path id="_Trazado_10" data-name="&lt;Trazado&gt;" class="cls-2" d="M252.06,155.18c.33,0,0,.33,0,0,0,.33.33.67,0,1Z"/><path id="_Trazado_11" data-name="&lt;Trazado&gt;" class="cls-2" d="M249.4,155.52h0C249.73,155.85,249.4,155.85,249.4,155.52Z"/><path id="_Trazado_12" data-name="&lt;Trazado&gt;" class="cls-2" d="M252.06,156.18c.33,0,0,.33,0,.67v.33c-.33,0,0,.33,0,.67v-1.66Z"/><path id="_Trazado_13" data-name="&lt;Trazado&gt;" class="cls-2" d="M250.73,158.51c.33-.33,1-.33,2-.33h1.66A13.66,13.66,0,0,1,250.73,158.51Z"/><path id="_Trazado_14" data-name="&lt;Trazado&gt;" class="cls-2" d="M255.72,158.51s.67-.33.67,0Z"/><path id="_Trazado_15" data-name="&lt;Trazado&gt;" class="cls-2" d="M247.73,158.84c.33-.33.33,0,0,0v.67c0,.33,0,.67-.33.67,0,.33,0,.67-.33.67A2.45,2.45,0,0,0,247.73,158.84Z"/><path id="_Trazado_16" data-name="&lt;Trazado&gt;" class="cls-2" d="M254.72,159.18c0-.33.33,0,.67,0C255.39,159.51,254.72,159.18,254.72,159.18Z"/><path id="_Trazado_17" data-name="&lt;Trazado&gt;" class="cls-2" d="M254.72,159.84c0-.33.67,0,.67,0A.46.46,0,0,0,254.72,159.84Z"/><path id="_Trazado_18" data-name="&lt;Trazado&gt;" class="cls-2" d="M255.72,159.84Z"/><path id="_Trazado_19" data-name="&lt;Trazado&gt;" class="cls-2" d="M256.72,159.84c0-.33.33-.33,0,0Z"/><path id="_Trazado_20" data-name="&lt;Trazado&gt;" class="cls-2" d="M251.72,160.17s.67-.33.67,0Z"/><path id="_Trazado_21" data-name="&lt;Trazado&gt;" class="cls-2" d="M252.72,160.17c0-.33.33-.33,0,0Z"/><path id="_Trazado_22" data-name="&lt;Trazado&gt;" class="cls-2" d="M255.39,159.84c0,.33-.33,0-.67,0Z"/><path id="_Trazado_23" data-name="&lt;Trazado&gt;" class="cls-2" d="M255.39,160.17c0-.33.33-.33,0,0Z"/><path id="_Trazado_24" data-name="&lt;Trazado&gt;" class="cls-2" d="M259.71,160.17Z"/><path id="_Trazado_25" data-name="&lt;Trazado&gt;" class="cls-2" d="M245.4,160.17c0-.33.33,0,.67,0A.46.46,0,0,1,245.4,160.17Z"/><path id="_Trazado_26" data-name="&lt;Trazado&gt;" class="cls-2" d="M257.72,160.17Z"/><path id="_Trazado_27" data-name="&lt;Trazado&gt;" class="cls-2" d="M258,160.17h.33C258.38,160.51,258,160.51,258,160.17Z"/><path id="_Trazado_28" data-name="&lt;Trazado&gt;" class="cls-2" d="M259.38,160.17c0-.33.67,0,.67,0h.67C260,160.51,259.71,160.51,259.38,160.17Z"/><path id="_Trazado_29" data-name="&lt;Trazado&gt;" class="cls-2" d="M258.38,160.51c0,.33-1.66,0-.67,0Z"/><path id="_Trazado_30" data-name="&lt;Trazado&gt;" class="cls-2" d="M257.38,161.17c0-.33.67,0,.67,0A.46.46,0,0,0,257.38,161.17Z"/><path id="_Trazado_31" data-name="&lt;Trazado&gt;" class="cls-2" d="M258.38,161.17c0,.33-.67,0-1,.33H258A.33.33,0,0,1,258.38,161.17Z"/><path id="_Trazado_32" data-name="&lt;Trazado&gt;" class="cls-2" d="M258.38,161.5c0,.33-.33,0-.67.33h-.33C257.72,161.17,258,161.5,258.38,161.5Z"/><path id="_Trazado_33" data-name="&lt;Trazado&gt;" class="cls-2" d="M253.06,162.5v.67c0,.33,0,.67-.33.67v-.67C252.72,162.84,252.72,162.5,253.06,162.5Z"/><path id="_Trazado_34" data-name="&lt;Trazado&gt;" class="cls-2" d="M253.39,162.5v1.33c-.33,0-.33-.33-.33-.67S253.06,162.5,253.39,162.5Z"/><path id="_Trazado_35" data-name="&lt;Trazado&gt;" class="cls-2" d="M252.39,162.5c.33,0,0,.67,0,1v-1Z"/><path id="_Trazado_36" data-name="&lt;Trazado&gt;" class="cls-2" d="M252.06,162.84c.33.33,0,.67,0,1C251.72,164.17,251.72,163.17,252.06,162.84Z"/><path id="_Trazado_37" data-name="&lt;Trazado&gt;" class="cls-2" d="M252.06,164.83c0-.33.33,0,0,0Z"/><path id="_Trazado_38" data-name="&lt;Trazado&gt;" class="cls-2" d="M252.06,165.5c0-.33.33-.33,0,0Z"/><path id="_Trazado_39" data-name="&lt;Trazado&gt;" class="cls-2" d="M251.72,171.49h0a.33.33,0,0,1,.33.33v2h0v-2C252.06,172.15,251.72,172.15,251.72,171.49Z"/><path id="_Trazado_40" data-name="&lt;Trazado&gt;" class="cls-2" d="M253.39,172.15h0C253.72,172.49,253.39,172.49,253.39,172.15Z"/><path id="_Trazado_41" data-name="&lt;Trazado&gt;" class="cls-2" d="M251.72,173.15c.33,0,0,0,0,.33C251.39,173.49,251.72,173.15,251.72,173.15Z"/><path id="_Trazado_42" data-name="&lt;Trazado&gt;" class="cls-2" d="M253.39,174.82c.33-.33.33,0,0,0Z"/><path id="_Trazado_43" data-name="&lt;Trazado&gt;" class="cls-2" d="M253.39,175.81h0C253.72,176.15,253.39,176.15,253.39,175.81Z"/><path id="_Trazado_44" data-name="&lt;Trazado&gt;" class="cls-2" d="M251.39,177.81c0-.33.33,0,0,0Z"/><path id="_Trazado_45" data-name="&lt;Trazado&gt;" class="cls-2" d="M251.39,178.48c0-.33.33,0,0,0Z"/><path id="_Trazado_46" data-name="&lt;Trazado&gt;" class="cls-2" d="M253.39,178.81c0-.33.33-.33,0,0Z"/><path id="_Trazado_47" data-name="&lt;Trazado&gt;" class="cls-2" d="M251.39,179.14c.33,0,.33.33,0,0Z"/><path id="_Trazado_48" data-name="&lt;Trazado&gt;" class="cls-2" d="M253.06,181.8c.33,0,.33,1,0,1s0-.33,0-.67Z"/><path id="_Trazado_49" data-name="&lt;Trazado&gt;" class="cls-2" d="M252.72,182.14c.33.33.33,1-.33,1C252.72,182.8,252.39,182.14,252.72,182.14Z"/><path id="_Trazado_50" data-name="&lt;Trazado&gt;" class="cls-2" d="M251.39,182.14c.33,0,0,.67,0,.67C251.06,182.8,251.39,182.47,251.39,182.14Z"/><path id="_Trazado_51" data-name="&lt;Trazado&gt;" class="cls-2" d="M246.07,186.46c.33.33.67.33,1,.67-.33.33-.33,0-.67-.33A.33.33,0,0,1,246.07,186.46Z"/><path id="_Trazado_52" data-name="&lt;Trazado&gt;" class="cls-2" d="M257,186.8c0-.33.33,0,0,0h0Z"/><path id="_Trazado_53" data-name="&lt;Trazado&gt;" class="cls-2" d="M252.39,187.46c.33.33-.33.33-.33.67C251.72,187.79,252.39,187.79,252.39,187.46Z"/><path id="_Trazado_54" data-name="&lt;Trazado&gt;" class="cls-2" d="M253.39,191.45c-.33,0,0-.33,0-.33l.33-.33a.33.33,0,0,0,.33-.33c.33,0,.33-.33.67-.33l.33-.33h.33l.33-.33c.33-.33.67-.33,1-.67.33,0,.33-.33.67-.33s.33,0,.67-.33h0c.33,0,1-.67,1.33-.67-.67.33-1,.67-1.66,1a7.24,7.24,0,0,1-1.66,1c-.33.33-.67.67-1,.67s-.33.33-.67.67C253.72,191.12,253.72,191.45,253.39,191.45Z"/><path id="_Trazado_55" data-name="&lt;Trazado&gt;" class="cls-2" d="M256.05,188.13c0-.33.67,0,.67,0Z"/><path id="_Trazado_56" data-name="&lt;Trazado&gt;" class="cls-2" d="M250.39,188.79c0,.33-.33-.33,0,0Z"/><path id="_Trazado_compuesto_" data-name="&lt;Trazado compuesto&gt;" class="cls-2" d="M256.05,156.85c-.33,0,.33-.33.33-.33-.33,0-.33.33-.67.67a1,1,0,0,1-.67.33.88.88,0,0,0,1,1c.33,0,0,.33-.33.33h-.67c-.33,0-.67-.33-1.33-.33a.33.33,0,0,1,.33-.33c-.33-1,0-2.66-.33-3.66v2.66c0,.33,0,.67-.33.67v-3.33a1.64,1.64,0,0,1,1-.33s1.33,0,1.33.33v1s-1.33-.33-1.33-.67-.67-.33-.67-.67c-.67,0-1.33.33-2,.33,0,1.33-.33,1.66,0,3h0c.33.33,0,.67-.33.67,0,.33.33.33.67.33h1c.33-3.33,1.33-1.66,1.33-2.66,0,0,1.33-.67,1.33-.33v.33a1.22,1.22,0,0,1,.33,1v1c0,.33-1,0-1,.33a19,19,0,0,0-4.33.33h0c0,.33-.33,0-.67.33a1,1,0,0,1-.33.67c0,.33.33,0,.67.33s-.67,0-.67.33,0,.67.33.67l-.33.33c.33.33.67,0,1,0h.33v-.67c0-.33,1.33-.67,2-.67h3.66c.33,0,.33-.33-.33-.33a.33.33,0,0,0,.33.33c0-.33-.33-.33-.33-.67h-.33q.5-.5,2,0l.33.33c1,.33,2,.33,3,.67a5.67,5.67,0,0,1,0,3.33,4.93,4.93,0,0,1-2.33.33h-.67c-.33,0-.33.33-.67.33H257c-.33,0-.33,0-.67-.33h-1.33v5.32c0,.33.67.33.67,1h.67c0,.33.33.33.33.67.33,0,.33,0,.67.33,0,.33.33.33.33.67.33,0,.33,0,.33.33l.33.33c0,.33-.67.33-1,.33,0,.33.33.67,1,.67H258a.33.33,0,0,0,.33-.33c-.33,0-.33,0-.33-.33.33,0,.33.33.67.33,0,.67.33,1,.33,1.66v1c0,.33-.33.67-.33,1-.33.33-.33.67-.67,1-.33,0-.33.33-.67.67-.33,0-.33.33-.67.33-.33.33-.33.67-1,1,0,.33-.33.33-.67.67v.33a6.49,6.49,0,0,0,.33,2.33,1.22,1.22,0,0,0,.33,1v.67a4.59,4.59,0,0,0,1,1.33c.33,0,.67.33,1,.33.67,0,1.66-.33,2.33-.33a2.92,2.92,0,0,1-2.33.33c-2-.33-2.33-2.33-2.33-4.33a.46.46,0,0,0,0,.67,1.22,1.22,0,0,0,.33,1v.67a7,7,0,0,0,1.33,2,237.07,237.07,0,0,1,.67.67c-1.66-.33-2-2-2.33-4v1c0,.33,0,.33.33.67,0,.33,0,.67.33.67v.33a.33.33,0,0,0,.33.33h.33v.33l1,1a2.81,2.81,0,0,0,2.33,0,2.84,2.84,0,0,1-2.33,0c-.33,0-1-.33-1-.67v-.33l-.33-.33a1,1,0,0,0-.33-.67c0-.33-.33-.33-.33-.67s-.33-1.33-.33-2c-.33.33,0,.67,0,1a2,2,0,0,0,.33,1.33v.33l.33.33c0,.33,0,.33.33.67a2.37,2.37,0,0,0,2,1h-.67c-.33,0-.33-.33-.67-.33s-.67-.33-1-.67v-.33h-.33v-.33l-.33-.33a.33.33,0,0,0-.33-.33v-.33a3.36,3.36,0,0,1-.33-1,14.39,14.39,0,0,1-.33-1.66v1h0v1c0,1.33,1,2,1.66,2.66.33,0,.67.33,1,.33,0,.33-.33,0-.33,0h0a1,1,0,0,1-.67-.33v-.33a.33.33,0,0,1-.33-.33l-.33-.33c0-.33-.33-.67-.67-1v-.33h-.33s0-.67-.33-.67c-.33-.33-.33-1.33-.33-2v1.66a.33.33,0,0,0,.33.33,1.22,1.22,0,0,0,.33,1h0c0,.33.33.67.67,1s.67.67.67,1c.33,0,.33.33.67.33,0,.33-.33,0-.67,0a1.5,1.5,0,0,1-1-1l-.33-.33v-.33a3.57,3.57,0,0,1-.67-2c-.33.33,0,.67,0,1a1,1,0,0,0,.33.67.33.33,0,0,1,.33.33v.33h0a.72.72,0,0,0,.67.67v.33l.33.33c-.33,0-.33-.33-.67-.33l-.33-.33-.33-.33v-.33h-.33a1.22,1.22,0,0,0-.33-1c-.33,0,0,.33,0,.67v.33l.33.33a.33.33,0,0,0,.33.33c0,.33.33.33.67.67,0,.33-.33-.33-.67-.33v-.33a1.16,1.16,0,0,1-.33-.67v.33c0,.33,0,.33.33.33v.33l.33.33c.33.33.33.67.67.67s.67.33,1,.33c-.33.33-.67,0-1-.33l-.33-.33c-.33-.33-.67-.33-1-.67,0-.33-.33-.33-.33-.67-.33,0,0,.33,0,.33,0,.33.33.67.67,1,.67.33,1,1,2,1-.33.33-.67,0-1,0h-.33l-.33-.33a.33.33,0,0,1-.33-.33c-.33-.33-.33-.67-.67-.67a1.06,1.06,0,0,0,1,1,1.73,1.73,0,0,0,1.33.67h-.67a2.52,2.52,0,0,1-1.33-.67l-.33-.33c-.33,0,0,.33,0,.33a.33.33,0,0,1,.33.33h.33c.33,0,.33.33.67.67,0,.33-.33,0-.67,0-.33-.33-.67-.67-1-.67,0,.33.33.33.67.67.33,0,.33.33.67.33-.33.33-1-.33-1-.33-.33,0,.33.33.33.33.33,0,.33.33.67.33-.33.33-.67,0-1-.33,0,.33.33.33.67.67.33,0,.33-.33.67-.33h.33v-.33h.33c.33,0,.33-.33.67-.33a.33.33,0,0,1,.33-.33.33.33,0,0,0,.33-.33c.33,0,.67-.33,1-.33l.33-.33a1.16,1.16,0,0,1,.67-.33,8.35,8.35,0,0,1-2.33,1.33l-.33.33h-.33l-.33.33c-.33.33-.67.33-1,.67,0,.33.33,0,.33,0,.33-.33.67-.67,1-.67.33-.33.67-.33,1.33-.67.33-.33.67-.33,1.33-.67.33-.33,1-.33,1.33-.67a1.22,1.22,0,0,1-1,.33,1.16,1.16,0,0,0-.67.33l-.33.33h-.33v.33c-.33,0-.33.33-.67.33a2.52,2.52,0,0,1-1.33.67c-.33.33-.67.67-1,.67s-.67-.67-1-.67c-.33-.33-.67-.33-1.33-.67.33,0,.67.33,1,.33a.33.33,0,0,1,.33.33c.33.33.67.33,1,.67.33-.67,0-1.33,0-2.33h0v-.33h0v-.33h0v-6.66c.33.33,0,.67.33.67a.46.46,0,0,0,0-.67c.33,0,0,.33.33.33s-.33-.67,0-.67c.33-.33.33,0,.33.33.33,0,0-.33,0-.33a.33.33,0,0,0,.33-.33c.33,0,0,.33,0,.67.33,0,0-.33,0-.67-.33.33-.67.33-1,.67-.33,0-.33.33-.67.33-.33.33-.33.33-.67.33a.33.33,0,0,0-.33.33.33.33,0,0,1-.33.33,4.6,4.6,0,0,1-1.33,1c-.33,0-.33.33-.33.67-.33.33-.67.67-1,.67,0,.33-.33.33-.67.67s-.33.33-.33.67a14.39,14.39,0,0,1-1.66-.33h-.33a3.35,3.35,0,0,0-1-.33l-.33-.33a.33.33,0,0,1-.33-.33.33.33,0,0,0-.33-.33l-.33-.33s-.67-.33-.67-.67c-.33-.33-.67-1-1-1.33-.33-.67-1-1.66-1.33-2.33a2,2,0,0,1-.33-1.33,9.21,9.21,0,0,1-.33-3c-.33.33,0,.67-.33,1v1.33c0,.33,0,.33.33.33-.33.33,0,1,0,1.33.33-.33,0-.67,0-1.33.33,0,0,.67.33.33h0l-.33.33h0v.33c0,.33.33.67.67,1,0,.33.33.33.33.67l.33.33c0,.33.33.33.33.67.33-.33-.33-.33,0-.67a2.52,2.52,0,0,1,.67,1.33v.33h.33v.33l.33.33c0,.33.33.33.33.67v.33a.33.33,0,0,1,.33.33v.33l1,1c0,.33.33.33.33.67h.33v.33h.33v.33h.33l.33.33.33.33a1.16,1.16,0,0,1,.67.33.33.33,0,0,1,.33.33,1.16,1.16,0,0,0,.67.33h.33l.33.33h.33l.33.33c.33,0,.33.33.67.33.33.33,1,.33,1.66.67.33.33.67.33,1,.67h.67v.33c.33.33,1,.67,1.33,1,.33-.33.33-.67.67-.67.33-.33.67-.67,1-.67H258l.33-.33h.33a1.16,1.16,0,0,1,.67-.33,1.22,1.22,0,0,1,1-.33v-.33h.33a2.52,2.52,0,0,1,1.33-.67,3.33,3.33,0,0,0,1.66-1.33c.33,0,.67-.67,1-.33a.33.33,0,0,1,.33-.33l1-1,.33-.33.33-.33.33-.33a8.34,8.34,0,0,0,1.33-2.33h0a5.37,5.37,0,0,1-1.33,2.33l-.67.67c-.33.33-.33.67-.67.67,0,.33,0,0-.33.33v.33a.33.33,0,0,0-.33.33h-.33a.33.33,0,0,1-.33.33c-.33.33-1,.67-1.33,1a.33.33,0,0,0-.33.33.33.33,0,0,1-.33.33H262l-.33.33a.33.33,0,0,0-.33.33l-.33.33h-.33v.33a1,1,0,0,0-.67.33l-.33.33h0a7.25,7.25,0,0,1-1.66,1c-.33.33-.67.67-1,.67s-.33.33-.67.33v.33H256v.33s-.67.33-.67.67-.33.33-.33.67a.33.33,0,0,0,.33-.33l1-1a10.12,10.12,0,0,0,2.33-1.66c.33,0,.67-.33,1-.33v-.33c.33,0,.33,0,.67-.33a.33.33,0,0,0,.33-.33,1.16,1.16,0,0,1,.67-.33c.33-.33.67-.33.67-.67h.33l.67-.67c.33,0,.67-.33,1-.67,0,0,.33-.67.67-.67l.33-.33v-.33h.33a.33.33,0,0,1,.33-.33c.33-.33.33-.67.67-1l.33-.33a.33.33,0,0,1,.33-.33l1-2c0-.33,0-.67.33-.67v-.33l.33-.33v-1a14.4,14.4,0,0,0,.33-1.66c.33,0,0,.33,0,.33a4.22,4.22,0,0,1-.33,2c0,.33,0,.33-.33.67.33.33-.33.67-.33,1.33.33-.33.33-1,.67-2,0-.33,0-.33.33-.67v-2.66a2,2,0,0,0-.33-1.33c-.33.33,0,.33,0,.67,0,.67-.33,1.33-.33,2v.67c0,.33-.33.67-.33,1s0,.33-.33.67a1.16,1.16,0,0,0-.33.67l-.33.33a1.16,1.16,0,0,0-.33.67l-2,2c-.33.33-.67.33-.67.67a7.24,7.24,0,0,1-1.66,1c0-.33.33-.33.67-.33.33-.33.67-.33,1-.67a10.14,10.14,0,0,0,2.66-2.66c-.33-.33-.33,0-.67,0-.67,0-1-.33-1.33-.33l.67-.67h.33v-.33a.33.33,0,0,0,.33-.33c.33-.33.67-1,1-1.33a701.43,701.43,0,0,0,.67-1.33.33.33,0,0,0,.33-.33,2.52,2.52,0,0,1,.67-1.33,1.22,1.22,0,0,1,.33-1c.33,0,.33.33.33.67a1,1,0,0,0,.33.67c0,.33.33.67.33,1.33a7.39,7.39,0,0,1,.33,3,7.91,7.91,0,0,1-1,4c-.33,0-.33,0-.33-.33v-.33h-.33a.33.33,0,0,0-.33-.33l-.33-.33a1.22,1.22,0,0,0-.33,1c-.33.33-.67,1-1,1.33a4.58,4.58,0,0,0-1,1.33c0,.33-.33,0-.33.33a.33.33,0,0,1-.33.33h-.33v.33l-.33.33H264a.33.33,0,0,1-.33.33l-.67.67-2,1c-.33.33-.67.33-1,.67l-.33.33h-.33a.33.33,0,0,0-.33.33c-.33,0-.33,0-.67.33a.33.33,0,0,0-.33.33h-.33v.33a.33.33,0,0,0-.33.33v.33a.33.33,0,0,0-.33.33l-.67.67-.33.33-.33.33a.33.33,0,0,1-.33.33,5.84,5.84,0,0,1-1.33-1.66,5.84,5.84,0,0,0-1.66-1.33l-2-1c-.33-.33-.67-.33-1-.67h0a1.16,1.16,0,0,0-.67-.33c-.33.33-.33.33-.33.67-.33.33,0,.67,0,1.33,0,.33.33.33.67.67,0,.33,0,.33.33.67-.33-.33-.67-.33-1-1-.33,0-.33.33-.33.67v.33h0v.33c-.33,0-.33-.67-.67-1,.33-.67,0-1,0-1.66a.33.33,0,0,0,.33-.33c.33,0,.67-.33,1-.67,0-.33-.67,0-.67.33-.33,0,0,.33-.33.33,0-.33.33-.67.33-1s-.67-.33-.67-.67a.33.33,0,0,1-.33-.33,13.31,13.31,0,0,1-3.33-4,1,1,0,0,1-.33-.67c-.67.33-.33,1.33-1,1.66a.33.33,0,0,1-.33-.33l-.33-.33a1.16,1.16,0,0,1-.33-.67v-.33l-.33-.33v-.67h0c-.33-1,0-2.66,0-3.66h0v-.67h0v-.33c0-.67.67-1.33.67-2a1.16,1.16,0,0,1,.33.67c0,.33,0,.67.33.67-.33.33.33.67.33,1.33,0,.33.33.33.33.67s.33.33.33.67c.33.67,1,1,1.33,1.66.33,0,.33.33.67.33s.33.33.67.33c0,.33-.33.33-.67.33a1.49,1.49,0,0,1-1.66,0,5.85,5.85,0,0,0,1.33,1.66v.33a7.54,7.54,0,0,0,3.66,2c.33,0,.33-.33.67-.67a.33.33,0,0,0,.33-.33c0-.33.33-.33.33-.67.33,0,.33-.33.67-.33,0-.33.33-.33.67-.67.33,0,.67-.67,1-.67a709.18,709.18,0,0,0,.67-.67h.33c0-.33.67-.33.67-.33.33-.33,1-.67,1.33-1v-8c.33.33,0,.33,0,.67v5.32h1.33a3.35,3.35,0,0,1,1,.33v1l-1,.33c0,.33-1,0-1,.33s-.33.33-.33.67c.33,0,0-.33,0-.33h.33v-.33s-.33-.33-.33,0c-.33,0,0-.33-.33-.33.33-.33.33-.33.67-.33a1.16,1.16,0,0,1,.67-.33l.33-.33c.33,0,.33-.33.67-.33l.67-.67a1.16,1.16,0,0,0,.33-.67c.33,0-.33.33,0,.33a.33.33,0,0,0,.33.33s-.33-.33,0-.33,0-.33,0-.33c0-.33.33.33.33,0,0,0-.33-.33,0-.33,0-.33-.33,0-.33-.33,0-.67,0-.67.67-1,0-.33,0-.67.33-.67v-.33l.33-.33v-.67a1.22,1.22,0,0,0-.33-1h0l-.33-.33v-.67c-.33-.33-.67-.33-.67-.67-.67,0-.67-.67-1.33-.67-.33.33,0,.67,0,1v4h0v1.66a.33.33,0,0,1,.33.33H258v1l-.33-.33v-5.32h0v-1.33h0v-.67h0v-1.33h0v-5h0v-.33h0a.33.33,0,0,0-.33-.33c-.33,0,0,.67-.33,1,.33,0,0-.33,0-.33s.33.67,0,.67v1h0v.33h0v.67h0v11.31h0c0-.67.67-.67.67-1-.33.33.33,1.66.33,1.66v-.67l-.67-.33c-.33.33-.33.33-.33.67-.33,0-.33.67-.67.67v-5h0c0-.33-.33-.33,0-.67h0v-5.66h0v.33h0v.33h0v.33c0,.33.33,1,0,1.66v6c0,.33.33.67,0,1-.33,0-.33-.33-.33-.67h0v-.67h0V164.17c-.33-.33-1,0-1.33,0v1.66c-.33,0,0-.33,0-.67v-1c0-.33-.33,0-.33.33-.33-.33-1.33,0-1.66-.33-.33,0,0,.33-.33.33,0,.33.67.33.33.67.33.33.67.67.67,1,.33,0,.33.33.67.67.33,0,0-.33.33-.33v.67h0v.67h0v.33h0v6.32h0v.33c-.33,2,0,4.33-.33,6.66a.46.46,0,0,1,0-.67h0v-.67h0c0-4,0-7.32.33-11.31,0-.33-.33-.33-.33-.67,0,0-.67,0-.67-.33s-1-.67-1-.67v-.33c0-.33-.33-.67-.33-1l-.33-.33v-.67s-.33,0,0-.33h-.67l-.33-.33a9.72,9.72,0,0,1-3-.67,9.05,9.05,0,0,1,0-3c1,0,2-.33,3-.33.33,0,1-.33,1.33-.33.33-.33.33-.67.67-1a1.22,1.22,0,0,1,.33-1,4.11,4.11,0,0,1-1.33-2.66v-2c0-.33,0-.33.33-.33v-.33l.33-.33.33-.33c.33-.33.67-.33.67-.67a9.84,9.84,0,0,1,3.33-.67,4.73,4.73,0,0,1,2,.67l1,1c.33.33.67.67.67,1a.33.33,0,0,0,.33.33c0,.67,0,1,.33,1.33C257.72,155.18,257,155.85,256.05,156.85Zm-1.66-7.32c-.33,0,0-.33,0,0,0,0,.67.33.67,0-.33,0-.67-.33-.67,0,0-.33-.67,0-.67,0Zm-.67-.33h0c-.33,0-.33,0-.33-.33-.33.33-1,0-1.33,0a1.16,1.16,0,0,0-.67.33A2.84,2.84,0,0,0,253.72,149.19Zm-1,.33c-.67,0-1,0-1.33.33-.33,0-.67.67-1,.33.33,0,.33-.33.67-.33h-.33a.33.33,0,0,0-.33-.33c-.33,0,0-.33,0-.33h-.33s0,.67-.33.67a1.16,1.16,0,0,1-.33.67h0c-.33,0-.67.33-.67,1h-.33v.33a.33.33,0,0,0-.33.33c0,.33-.33.67,0,.67h0a.33.33,0,0,0-.33.33s.33,0,0,.33v.67l.33.33v.33a.33.33,0,0,0,.33.33c0,.33.67.67.33,1,.33,0,.33.67.67.67,0-.33.33-.67.33-1a.33.33,0,0,1-.33-.33.33.33,0,0,0-.33-.33v-2c.33-.33.33-.67.67-1a4.58,4.58,0,0,1,1.33-1l-.67.67a.33.33,0,0,1-.33.33,4.58,4.58,0,0,1,1.33-1c.67-.33,1.33,0,2.33,0-.33.33.67.33.33.67a2.49,2.49,0,0,0-1.66-.33,1.22,1.22,0,0,1-1,.33c-.33.33-.67.33-1.33.33,0,.33-1.33.67-1.33,1v.33a.33.33,0,0,1,.33.33h.33a2.86,2.86,0,0,1,2.33-2,2,2,0,0,1,1.33.33h0s.33.33.33,0a.33.33,0,0,1-.33-.33c.33,0,.33.67.67.33l-.33-.33s.33.33.33,0l-.33-.33c.33,0,.67.33.33.67.67,0,1,2,.67,2.33,0,.33,0,0-.33,0,0,.67-.67.67-.33,1h.33c0,.33,0,.33.33.33a.46.46,0,0,0,0,.67.33.33,0,0,1,.33-.33v-.33l.33-.33h.33v-.33h.33v-.33l.33-.33a.33.33,0,0,1,.33-.33v-1.66a1.16,1.16,0,0,0-.33-.67v-.33l-.33-.33v-.33l-1-1c-.33,0-.33,0-.33-.33-.33,0-.33,0-.67-.33,1,0,1.33.67,2,1,0,.33.33.33.67.67,0,0,0,.33.33,0-.33-.33.33,0,.33-.33a.33.33,0,0,0-.33-.33c-.33,0,0,.33-.33.33A9.62,9.62,0,0,0,252.72,149.52Zm.67-.33h0Zm2,3.66c-.33,0,0-.33-.33-.67h-.33a.33.33,0,0,0-.33-.33h-.33a.33.33,0,0,1-.33-.33,2.66,2.66,0,0,0-3.66,2s0,1,.33,1.33h.67a1.16,1.16,0,0,0,.67-.33c.33,0,1-.33,1.33-.33.67,0,1,.67,1.66.67A1.48,1.48,0,0,0,255.39,152.85Zm-5,0h0a1.78,1.78,0,0,1,1-1.33c.33,0,.33-.33.67-.33A2.74,2.74,0,0,0,250.39,152.85Zm8.32,5.66a7.33,7.33,0,0,1,.33,2.66h1.66c.33,0,1.33,0,1-.33,0,.33,0,0-.33,0H259c0-.33.33,0,.67,0h.67c.67,0,1,0,1.33-.33h-2c-.33,0-.33,0-.67-.33h2.66v-.33c0-.33,0-.33-.33-.33.33,0,0-.33,0-.67H260a2,2,0,0,1-1.33-.33,14.41,14.41,0,0,1,1.66.33H261s.67.33.67,0C260.38,158.84,259.71,158.51,258.71,158.51ZM264,180.14a.33.33,0,0,0-.33.33.72.72,0,0,0-.67.67h.67a14.49,14.49,0,0,0,2-2.33c.33-.67.67-1,.67-1.66,0-.33.33-.67.33-1C266.37,177.81,265.37,178.81,264,180.14Zm.67,4.33c0,.33-.33.33,0,0-.33.33-.67.67-.67,1l-.67.67v.33l-.33.33c-.33.33-1,1-1.33,1l-.33.33H261v.33c-.33.33-.33.33-.67.33a8.33,8.33,0,0,1-2.33,1.33c-.33,0-.33.33-.67.33-.33.33-.67.33-.67.67-.33,0-.33,0-.33.33a709.18,709.18,0,0,1-.67.67.33.33,0,0,0-.33.33l-.33.33-.67.67c-.33.33-.67.67-.67,1h0v-.33l1-1a4.57,4.57,0,0,1,1.33-1,15.54,15.54,0,0,1,3.33-1.66c.33-.33.33-.33.67-.33a.33.33,0,0,0,.33-.33,43.56,43.56,0,0,0,4.33-5.33Zm0,0c-.33,0-.33.33,0,0-.33.33-.67.33-.67.67a1.16,1.16,0,0,0-.33.67h-.33v.33H263v.33a7.26,7.26,0,0,1-1.66,1.33c-.33.33-.67.33-.67.67a1.16,1.16,0,0,0-.67.33.33.33,0,0,0-.33.33h-.33l-.33.33c-.33,0-.33,0-.67.33s-.67.33-1,.67c-.33,0-.33.33-.67.33h-.33a.33.33,0,0,1-.33.33h-.33v.33h-.33l-.33.33c.33,0,.33-.33.67-.33a15.55,15.55,0,0,1,3.33-1.66.33.33,0,0,0,.33-.33h.33c.67-.33,1.33-1,2-1.33.67-.67,1.33-1,2-1.66a3.49,3.49,0,0,1,1-2l.67-.67a.33.33,0,0,0,.33-.33s.33-.33,0-.33C265.37,183.47,264.7,183.8,264.7,184.47Zm.67-.67a1.16,1.16,0,0,0,.33-.67C265.37,183.47,265,183.8,265.37,183.8Zm-19.3,7.32c0-.33,0-.33-.33-.33A.33.33,0,0,0,246.07,191.12Zm-4-11.31c.33,0,.33.33.67.33a1.16,1.16,0,0,1,.33.67q-1-.5-1-1c-.33-.33-.67-.33-.67-.67-.33,0-.33-.67-.67-.67.33.33.33.33.33.67a.33.33,0,0,1,.33.33.33.33,0,0,0,.33.33l1,1a.33.33,0,0,1,.33.33c-.33,0-.33-.33-.67-.67,0,.33.33.33.33.67-.67-.33-1-1-1.33-1.33a.33.33,0,0,1,.33.33l.33.33c-.33-.67-1-1-1.33-1.66,0,0,0-.33-.33,0a.33.33,0,0,0,.33.33c0,1,1,1.33,1,2,.67.33,1,0,1.66,0,0-.33-.33-.33-.67-.67l-1.66-1.66a.72.72,0,0,0-.67-.67s0-.33-.33,0C241.08,178.48,241.41,179.14,242.07,179.81Zm4.66,5c.33,0,.67.33.67,0h0a.33.33,0,0,1-.33-.33c.33,0,.67,0,.33-.33h.33v-.33c-.33,0-.33-.33-.67-.33,0,.33-.33.33-.67.33v.33h-.33C247.07,184.8,247.07,184.8,246.73,184.8Zm7.65-5.32h0c.33-.33.33,0,.33,0,.33.33,0-.33.33-.33v-.33c-.33,0,0,.33-.67.33Zm2-1.33v.33c.67,0,0-.33.33-.67a.33.33,0,0,0,.33.33c0-.33,0-.33.33-.33,0-.33,0-.33-.33-.33C256.72,177.81,256.38,177.81,256.38,178.14Zm1.66-3.66c0,.33.67.33.33.67H259a.33.33,0,0,0-.33-.33s.33.33.33,0a.33.33,0,0,1-.33-.33Zm-10.32-13a.33.33,0,0,1,.33-.33,3.62,3.62,0,0,0,.33,1.66h.33c-.33,0-.33,0,0-.33h-.33c0-.33.33,0,.33-.33-.33,0-.33,0-.33-.33s.67,0,.33-.33c-.67,0-1,.33-1,0,.33,0,.67.33.67,0h-.67c.33-.33.67,0,.67-.33h-.33c.33,0,.33,0,.67-.33-.33,0-.67,0-.33-.33h.33c-.33,0,0-.33,0-.33,0-.33-.33,0-.67-.33.33,0,.67,0,.33-.33h0a2.51,2.51,0,0,0,.33-1.33h0c-.67,0-.67,0-.67.33,0-.33-.33,0-.67,0h-.67c-.67,0-1,.33-1.66.33,0,.33.33,0,.33.33h-.33c0,.33-.33.33-.33.67s0,0,.33.33v.33h2c.33,0,.67,0,.67.33H245.4c-.33,0-.33-.33-.67,0h2c.33,0,.67,0,.67.33h-2.33c-.33,0-.33-.33-.67,0,1,0,1.33.33,2.33.33.33-.33,1-.67,1,0a3.35,3.35,0,0,1-1-.33A1.22,1.22,0,0,0,247.73,161.5Zm4.33-10.32c.33,0,.33,0,.33-.33A.33.33,0,0,0,252.06,151.19Zm-1.66.33Zm-.33.67h0c-.33.67,0,1.33-.33,2a1,1,0,0,0,.33.67c0-.33-.33-.67-.33-1v-.67c0-.67.33-1,.33-1.66Zm.33,1Zm-.33.67c.33,0,.33-1,.33-.67S250.06,153.52,250.06,153.85Zm.33.67s0-.67-.33-.33a.33.33,0,0,0,.33.33Zm.33,0c0,.33-.67.67-.33,1h.67a.33.33,0,0,1-.33-.33c.33,0,.33-.33.33-.67Zm-.67.67h0c.33,0,.67-.33,0,0Zm0,1h.33c.33,0,.67,0,.67-.33-.33,0,0-.33,0-.33h-1Zm-.33,1h.67v-.33h.33C250.06,156.51,249.73,156.51,249.73,157.18Zm1.33-.33Zm0,.33Zm-.67,1a.46.46,0,0,1,.67,0h.33a.33.33,0,0,1,.33-.33v-.67c-.33,0-.67-.33-1-.33C250.73,157.51,250.06,157.84,250.39,158.18Zm-1-.67v.33c.33,0,.67,0,.67-.33h-.33l.33-.33c0,.33,0,.33-.67.33Zm7.65.67c.33,0,1,.33,1,0C257.72,158.18,257,157.84,257,158.18Zm-8,.67c.33-.33.33,0,.67-.33h0a.33.33,0,0,0,.33-.33C249.4,158.18,248.73,158.51,249.06,158.84Zm9,3.33h-.67c-.33,0-.33,0-.33-.33,0,0,.67,0,.67-.33h-.33c.33,0,.67-.33,1,0,0,.33-.33,0-.33.67a.33.33,0,0,1,.33-.33c0-1.33.33-2.33-.33-3.66h-.33c-.33,0-.33.33-.67,0l.33.33h-.67c.33,0,.33,1.33.33,2.33-1.66.33-4.33,0-6.32,0-.33,0-.67-.33-.67,0h6s.67,0,.67.33h-6.32a32,32,0,0,0,5.66,0h1.33c0,.67,0,1-.33,1.33h.67a.33.33,0,0,1-.33-.33.46.46,0,0,0,.67,0C258.38,161.84,258.38,162.17,258,162.17Zm-9.32-2.33a1.16,1.16,0,0,1,.67-.33c0-.33,0-.33.33-.33s0,.33.33.33c0-.33,0-.33-.33-.33,0-.33,0-.33-.33-.33h.33C249.06,158.84,248.4,159.51,248.73,159.84Zm0,1c.33,0,.67,0,.67-.33h-.33a.33.33,0,0,0,.33-.33h-.33c.33-.33.33,0,.33-.33h-.33l.33-.33C249.06,160.17,248.4,160.17,248.73,160.84Zm8-1.33c-1.33,0-2.66.33-3.66.33v.33h-1.33c-.33,0-.33-1-.67-1s-1-.67-1-.67h7A.64.64,0,0,1,256.72,159.51Zm-8.32,1.66c.33,0,.33.33.33.67.33,0,.67-.33.33-.67h.33c-.33,0,0,0,0-.33A1.22,1.22,0,0,1,248.4,161.17Zm-3,0h-.33s-.33-.33-.33,0Zm1,0h-.67S246.4,161.5,246.4,161.17Zm14.64.33c1,0-.33-.33-.33,0Zm-16.31,0c.33-.33-.33,0,0,0Zm14.64,0c-.33,0-.67-.33-.67,0Zm1,0h0Zm-15,0Zm11.65,0h-1c-.33,0-.67,0-.67.33h1.33c0-.33.67,0,.33-.33Zm-11,4Zm4.66-4h-.33S250.73,161.84,250.73,161.5Zm.67,4Zm9.65-3.66h.33s0-.33-.33,0Zm-16-.33Zm1.33,0Zm8,.33h-3A8.78,8.78,0,0,1,254.39,161.84ZM261,165.5Zm-14.31-3.66c-.33,0-1-.33-1.33,0C245.73,161.84,246.4,162.17,246.73,161.84Zm.33,0c.33,0,.67,0,.67.33-.33,0-1-.33-.67-.33.33.33.33.33.67.33v-.33Zm2,.33a.33.33,0,0,1,.33-.33C249.06,161.84,248.73,161.84,249.06,162.17Zm0,.33h0c.33-.33,0-.33,0-.33a.33.33,0,0,0,.33-.33c-.33.33-.67.33-.33,1,.33,0,.67-.67.67-.67C249.4,162.5,249.4,162.5,249.06,162.5Zm11.31,3Zm-1-3.66Zm-14.31,0Zm11.65.33H257s0-.33-.33,0C257,162.17,256.72,161.84,256.72,162.17Zm2,.33c.33-.33.67-.33,0,0-.67-.33.67-.33.33-.33C258.71,161.84,258.38,162.17,258.71,162.5Zm2.33,3Zm-15.31-3.33Zm.33,0c-.67,0,.33.33,0,0Zm4.66,0c0-.33-.33,0,0,0s1,.33,1.33,0Zm1.66,0Zm-5,.33h0l-.67-.33C246.73,162.5,247.07,162.5,247.4,162.5Zm7.65-.33h-1C254.39,162.17,255.05,162.5,255.05,162.17Zm-4.66.33h1.33s.33.33.33,0A1.48,1.48,0,0,0,250.39,162.5Zm6.66,3Zm1-3c1-.33-.67,0,0,0Zm-1.66,0Zm2.66,0Zm-3.66,0Zm.33,3Zm-5.32,0Zm4-2.33v0Zm1.66-.33a1.22,1.22,0,0,0,1-.33C256.38,162.84,256.05,162.5,256.05,162.84Zm1.33,0c.33-.33.67,0,1-.33C258,162.84,257,162.5,257.38,162.84Zm-5.66,0h0Zm-2.66,1a.33.33,0,0,0,.33-.33c-.33,0-.33-.33,0-.33a.33.33,0,0,0-.33-.33Zm6.66-1Zm-1.33,9.65h0v-.67h0v-.33h0v-8.32c-.33,0,0,.33,0,.67v9.32C254.72,173.49,254.39,172.49,254.39,172.49Zm-5-8.65c0,.33,0,1,.33,1,0-.33,0-.33.33-.67v-.33s.33-.33,0-.33a.33.33,0,0,1-.33.33s.33-.33,0-.33c0,.33,0,.67-.33.33.33.33.33,0,0,0Zm3.33,7.65h0v-7.65h0Zm-2.33-6.66c-.33.33-.33,1,0,1,0-.33.33-.33,0-.67,0,0,0,.33-.33,0,.33.33.67,0,.33-.33v0Zm-.33-.33h0C250.06,164.83,250.39,164.83,250.06,164.5Zm.67,1.66c0-.33.33-.33,0-.67,0,.33,0,0-.33,0,0,.33,0,1,.33,1,.33-.33.67-.67,0-.33C251.06,165.83,251.06,166.16,250.73,166.16Zm.67.67v-.67s.33-.33,0-.33C251.39,166.16,250.73,166.83,251.39,166.83Zm4,2.66Zm.33.33c.33,0,.67,0,.67-.33C256.05,169.82,255.72,169.49,255.72,169.82Zm.33.33c.33,0,.67,0,.67-.33C256.05,169.82,256.05,169.82,256.05,170.16Zm.33.33c0,.33,1,.33,1,0-.33,0-.67,0-.33-.33C256.72,170.16,256.38,170.16,256.38,170.49Zm.33.67a1.22,1.22,0,0,0,1,.33.33.33,0,0,0-.33-.33C257.38,170.82,257,170.82,256.72,171.16Zm-2,1.66c.33,0,0-.67,0-.33C255.05,172.49,254.72,172.82,254.72,172.82Zm3.66.33c0-.33.33.33.33,0,0,0,0-.67-.33-.67H258C258,172.82,258,173.15,258.38,173.15Zm-3.66,0h0a.33.33,0,0,0,.33-.33h-.33Zm.33.67c0-.33,0-.67-.33-.33C255.05,173.49,254.72,173.82,255.05,173.82Zm-.67,3.66h0v0Zm4.66-3.66c0-.33-.33-.33-.67-.33a1.16,1.16,0,0,0-.33.67c.33,0,.67.33,1-.33h0c-.33,0-.33.33,0,0-.33.33-.33,0,0,0Zm-4,.33Zm0,1.66c0,.33,0,1,.33,1-.33,0,0-.33,0-.33h0l-.33-.67c0-.33.33-1,0-1.33Zm2.66,0c.33,0,.33.33.67.33v-.33c-.33,0-.33,0,0-.33a1.16,1.16,0,0,0-.67-.33C258,175.48,258,175.48,257.72,175.81Zm9.65.33Zm-9.32.33h0c0-.33-.33-.33-.67-.33,0,.33.33.33.67.67C258.38,176.48,258,176.48,258,176.48Zm9.65.33Zm-10,0Zm9.65,1.33h0v2.66a.33.33,0,0,1-.33.33v.67c0,.33-.33.33-.33,1a.33.33,0,0,0,.33-.33,1.22,1.22,0,0,0,.33-1,16.19,16.19,0,0,0,.33-4h0C267.37,177.15,267.37,178.14,267.37,178.14Zm.33,0a9.67,9.67,0,0,1-1,4.66c.33,0,.67-1,.67-1.33s0-.67.33-.67a12.47,12.47,0,0,0,.33-3.66v-.33A2,2,0,0,0,267.7,178.14Zm-28.62,0v-.67C238.75,177.48,238.75,178.14,239.08,178.14Zm29,0v-.67C268,177.81,267.7,178.48,268,178.14Zm-27.29,0-.33-.33C240.41,178.14,240.41,178.48,240.74,178.14Zm-1.66.67c0,.33,0,.67.33.67,0-.33,0-.67-.33-.67v0Zm27,0c0-.33.33-.33.33-1h0C266.37,178.14,265.7,178.48,266,178.81Zm-25.62-.67Zm15,.67c0,.33,0,.33.33.67a1.17,1.17,0,0,0-.33-.67c.33.33.33.33.33.67,0-.33,0-.33.33-.33,0-.33,0-.67-.33-.67A.33.33,0,0,0,255.39,178.81Zm-16.31.33v0Zm17.3-.33h0c.33,0-.33-.33,0,0Zm-17.64.33Zm1,0Zm24.63,1.66c-.33,0-.33,0-.33.33h1c0-.33.67-.33.33-.67,0,.33,0,.33-.33.33,0,0-.33.33-.33,0a4.59,4.59,0,0,0,1-1.33h0a1.16,1.16,0,0,1-.33.67l-.33.33-.33.33s0,.33-.33,0c.33,0,.33-.33.67-.67,0-.33.33-.33.33-.67s.33-.33.33-.67A7,7,0,0,1,264.37,180.81Zm-24.63-1.66h0C239.41,179.14,239.75,179.48,239.75,179.14Zm-1,.33h0C238.75,179.81,239.08,179.81,238.75,179.48Zm.67.33c-.33,0,0-.33-.33-.33C239.41,179.81,239.41,180.14,239.41,179.81Zm.33.33c0-.33,0-.33-.33-.67C239.75,179.81,239.75,179.81,239.75,180.14Zm-.67,0c0-.33,0-.33-.33-.33A.33.33,0,0,1,239.08,180.14Zm-.33,0h0C238.41,180.14,238.75,180.47,238.75,180.14Zm14.64,0Zm-14,.67h0c0,.33,0,.33.33.33s0-.33-.33-.33v-.67C239.41,180.47,239.75,180.47,239.41,180.81Zm.67,0h0a1,1,0,0,0-.33-.67v-.33A1.46,1.46,0,0,0,240.08,180.81Zm12.65-.67c-.33,0-.33.67,0,1,0-.33,0,0,.33,0,0-.33.33-.67-.33-1Zm2.66,0Zm-16,.33Zm28.62,0Zm-29,1h0c0,.67.33.67.33,1s.33.33.33.67c.33,0,.33-.33.33-.67-.33,0-.33-.67-.67-.67,0,.33.33.67.33,1-.33-.67-.67-1.66-1-2.33v-.33C238.75,180.81,238.75,181.47,239.08,181.47Zm0,0h0a1.22,1.22,0,0,0-.33-1C238.75,180.81,239.08,180.81,239.08,181.47Zm1.33-1h0C240.08,180.47,240.41,180.81,240.41,180.47Zm15,0Zm-4,.33c0,.33,0,.67.33.67,0-.33.33-.33.33-.67l-.33-.33C252.06,180.81,251.72,180.81,251.39,180.81Zm-11.65.67a1,1,0,0,0-.33-.67C239.41,181.14,239.41,181.8,239.75,181.47Zm.67-.33Zm27.62,0Zm-17.64.33c0,.33,0,.67.33.67s0-.67.33-.67a.33.33,0,0,0,.33.33c0-.33.33-.33.33-.67C250.73,181.14,250.73,181.47,250.39,181.47Zm-9.32,1.66c0-.33-.33-.67-.33-1a709.18,709.18,0,0,0-.67-.67C240.74,182.14,240.74,182.8,241.08,183.14Zm-1-.67h0c-.33,0-.33.33,0,.33a.64.64,0,0,0-.33-1C240.08,181.8,240.08,182.14,240.08,182.47Zm.67-.67Zm25.29.67c0-.33.33-.33.33-.67h0Zm-25,0c.33.33,0-.33,0-.67h0C240.74,182.14,241.08,182.14,241.08,182.47Zm0-.67h0C241.08,182.14,241.41,182.14,241.08,181.8Zm9.32.67v-.67c-.67,0-.67.67-.33.67,0-.33-.33-.33,0-.33A.33.33,0,0,0,250.39,182.47Zm17.3-.33Zm-14,.33h0C253.39,182.47,253.39,182.8,253.72,182.47Zm-12.31.33c0-.33,0-.33-.33-.33C241.08,182.47,241.74,182.8,241.41,182.8Zm26,0c.33,0,.33-.33,0-.33Zm-18.64,0c.33,0,.67.33.67,0h.33a.33.33,0,0,0-.33-.33C249.06,182.47,249.06,182.8,248.73,182.8Zm17,.33.33-.67C265.7,182.8,265.37,183.14,265.7,183.14Zm-24,.33h0a1,1,0,0,1,.33.67.33.33,0,0,0,.33.33v.33l.67.67a.72.72,0,0,0-.67-.67l-.33-.33v-.33a.33.33,0,0,1-.33-.33h0c.33,0,0-.33,0-.33a1.16,1.16,0,0,0-.33-.67h0A1.16,1.16,0,0,0,241.74,183.47Zm25.29-.33Zm.67,0c0-.33-.33-.33,0,0Zm-26.29,0Zm6.66.67s.67.33.67,0h-.33c.67,0,0-.33.67,0-.33-.33,0,0,.33-.33C248.73,183.14,248.06,183.47,248.06,183.8Zm4.33,7.32-.67-.67h0c-.33,0-.33-.33-.67-.33l-.33-.33a8.33,8.33,0,0,0-2.33-1.33,10.36,10.36,0,0,1-2-1.33l-.33-.33c-.33-.33-.67-.33-.67-.67-.67-.33-1-1-1.66-1.33l-1-1a.33.33,0,0,1-.33-.33,1.16,1.16,0,0,1-.33-.67,4.78,4.78,0,0,1,.67,1v.33c0,.33.33.33.67.67l.33.33a709.34,709.34,0,0,0,.67.67,8.83,8.83,0,0,0,2,1.66,36.32,36.32,0,0,1,3.66,2,11.94,11.94,0,0,1,3.33,2.33A4.84,4.84,0,0,1,252.39,191.12Zm15-7.65h0C267,183.47,267.37,183.8,267.37,183.47Zm-2.33.67Zm-23,.33c0-.33-.33-.67-.33-.33C242.07,184.13,241.74,184.47,242.07,184.47Zm.67,1a.33.33,0,0,1,.33.33.33.33,0,0,0,.33.33c-.67-.33-.67-1-1.33-1.33C242.07,184.8,242.74,185.13,242.74,185.46Zm10,7a.72.72,0,0,0,.67.67c0-.33,0-.33-.33-.33a.33.33,0,0,0-.33-.33h0c-.33-.33-.67-.67-.67-1,.67.33,1,1,1.33,1.33,0-.33-.33-.33-.67-.67s-.67-.33-.67-.67c-.33,0-.67-.33-1-.67-.33,0-.33-.33-.67-.33a1.16,1.16,0,0,1-.67-.33.33.33,0,0,1-.33-.33h-.33c-.33,0-.33-.33-.67-.33s-.33-.33-.67-.33c-.33-.33-.67-.33-1-.67-.33,0-.33-.33-.67-.33a1.16,1.16,0,0,1-.67-.33v-.33h-.33v-.33h-.33v-.33a.33.33,0,0,1-.33-.33c-.33-.33-.67-.67-1-.67a1.16,1.16,0,0,0-.67-.33s-.33-.33-.33,0c.67.33,1,1,1.33,1.33a1.16,1.16,0,0,1,.67.33,711,711,0,0,1,1,1c.33.33.33.33.67.33a7.3,7.3,0,0,1,1.66,1c.33.33,1,.33,1,.67h.33c.33,0,.33.33.67.33.33.33.67.33,1,.67,0,0,.67.33.33.67a22.38,22.38,0,0,0-3.66-2.33,5648.63,5648.63,0,0,0-2.66-1.33.33.33,0,0,0-.33-.33C247.4,189.46,250.73,190.46,252.72,192.45Zm-8-5.32h0c-.67-.33-.67-.67-1-1a.72.72,0,0,0,.67.67c.33.33.67.33.67.67A.33.33,0,0,0,244.74,187.13Zm.67,1.33c.33,0,.33-.33,0,0Zm-.33,1.33.33-.33h.33c-.67,0,0-.33,0-.33A.72.72,0,0,0,245.07,189.79Zm0,.33c.33.33-.33.67,0,1.33,0,.33,0,.33.33.33-.33-.33,0-.33,0-.67,0-.67,0-.67-.33-1,.33,0,.67,0,.67-.33C245.4,189.46,245.4,190.12,245.07,190.12Zm9-1.33Zm-8.32,1.66h0C245.4,190.12,245.4,190.46,245.73,190.46Zm9,1,.33-.33A.33.33,0,0,1,254.72,191.45Zm-.33.67a.33.33,0,0,1,.33-.33C254.39,191.79,254.05,192.12,254.39,192.12Zm-.33.33c0-.33-.33,0,0,0Zm-.33.33Zm1-42.93Zm.67,7.32h0c.33,0,.67-.33.33-.33S255.72,157.18,255.39,157.18Zm2-3.33h0v-.67a1.64,1.64,0,0,1-.33-1c0-.33-.33-.67-.33-1-.67-.33-1-1-1.66-1.33h-.33a.33.33,0,0,1,.33.33.33.33,0,0,0,.33.33c0-.33.33.33.33.33-.33,0,.33.33.33.33.33,0,.33,0,.67.33a2.54,2.54,0,0,1,.67,1.66v.33c-.33,0,0-.33,0-.33l-.33-.33v-.33h0a1.16,1.16,0,0,0,.33.67.33.33,0,0,0,.33.33v0C257.38,153.18,257.38,153.52,257.38,153.85Zm-2-3.66-.33-.33A.33.33,0,0,1,255.39,150.19Zm1.33,2.33c0-.33,0-.33-.33-.67C256.72,152.19,256.72,152.19,256.72,152.52Zm0,.33c.33-.33,0-.33,0,0Zm.33.67v.33h0v1.33C256.72,154.52,257,153.85,257,153.52Zm.33.67Zm0,.67c0-.33.33-.67,0-.67A.46.46,0,0,0,257.38,154.85Zm-2.66,0Zm-.33.67v.67c.33.33.33-.33,0-.67l.33-.33v-.33C254.72,155.18,254.72,155.52,254.39,155.52Zm2.33,0c.33,0,.67-1,.33-.67C257,155.18,257,155.18,256.72,155.52Zm-.33-.33Zm-.33.67Zm.33.33h0c.33,0,.33-.33,0,0Zm-.67,0Zm0,.33Zm-1,.67Zm0,0Zm0,.67v0Zm1.33,0v0Zm-1-5.66c.33.33.33-.33,0,0Zm.33,0h0C255.72,153.18,255.72,152.52,255.39,152.19Zm.33,1Zm0,.67Z"/><path id="_Trazado_57" data-name="&lt;Trazado&gt;" class="cls-2" d="M263.37,184.8l-1,1,.33-.33C262.71,185.13,262.71,184.8,263.37,184.8Z"/><path id="_Trazado_58" data-name="&lt;Trazado&gt;" class="cls-2" d="M255.39,151.19c.33-.33.33.33,0,0C255.72,151.52,255.72,151.19,255.39,151.19Z"/><path id="_Trazado_59" data-name="&lt;Trazado&gt;" class="cls-2" d="M255.39,151.52h0C255.72,151.85,255.39,151.85,255.39,151.52Z"/><path id="_Trazado_60" data-name="&lt;Trazado&gt;" class="cls-2" d="M256.38,154.18c.33,0,0,.33,0,.33,0,.33-.33.67-.67,1-.33,0,.33-.33.33-.33A1.22,1.22,0,0,1,256.38,154.18Z"/><path id="_Trazado_61" data-name="&lt;Trazado&gt;" class="cls-2" d="M249.73,155.18l.33.33A.33.33,0,0,1,249.73,155.18Z"/><path id="_Trazado_62" data-name="&lt;Trazado&gt;" class="cls-2" d="M246.07,158.84h0a1.16,1.16,0,0,0,.67-.33h.33A1.22,1.22,0,0,1,246.07,158.84Z"/><path id="_Trazado_63" data-name="&lt;Trazado&gt;" class="cls-2" d="M240.41,180.47Z"/><path id="_Trazado_64" data-name="&lt;Trazado&gt;" class="cls-2" d="M240.41,179.81Z"/><path id="_Trazado_65" data-name="&lt;Trazado&gt;" class="cls-2" d="M248.06,185.46c.67-.33,1.33,0,1.66-.67a3,3,0,0,0,1-2.33v1a.33.33,0,0,1-.33.33v.33h0l-.67.67-.33.33h-.33a1.16,1.16,0,0,1-.67.33C248.73,185.46,248.4,185.13,248.06,185.46Z"/><path id="_Trazado_compuesto_2" data-name="&lt;Trazado compuesto&gt;" class="cls-2" d="M251.06,183.8c0-.33,0-1,.67-1v.33s0-.67.33-.67v.33c.33,0,0-.33,0-.67a.33.33,0,0,1,.33-.33h.33a.33.33,0,0,1,.33-.33v.67s-.33.33-.33,0v.33c-.33,0-.33.33-.67.33,0,.33,0,.33.33.33l-.33.33a1,1,0,0,1-.33.67c-.33.33-.67.67-1,.67a2.5,2.5,0,0,1-1.66.33h.33a2.54,2.54,0,0,0,1.66-.67c.33-.33.67-.67.67-1-.67.66-.67.33-.67.33Zm1-1Z"/><path id="_Trazado_66" data-name="&lt;Trazado&gt;" class="cls-2" d="M251.06,184.13a.72.72,0,0,1-.67.67c-.33,0,0-.33.33-.33C250.73,184.13,250.73,183.8,251.06,184.13Z"/><path id="_Trazado_67" data-name="&lt;Trazado&gt;" class="cls-2" d="M263.71,184.13a1.16,1.16,0,0,0-.33.67C263,184.47,263.71,184.47,263.71,184.13Z"/><path id="_Trazado_68" data-name="&lt;Trazado&gt;" class="cls-2" d="M251.72,184.13c0,.33-.33.67-.33,1-.33,0,0-.33.33-.67Z"/><path id="_Trazado_69" data-name="&lt;Trazado&gt;" class="cls-2" d="M243.07,184.47h0c1,.67,1.66,1.66,2.66,2-.33,0-.33-.33-.67-.33l-.67-.67a.33.33,0,0,1-.33-.33C243.74,185.13,243.41,184.47,243.07,184.47Z"/><path id="_Trazado_70" data-name="&lt;Trazado&gt;" class="cls-2" d="M252.06,184.47c.33.33-.33.67-.67,1a.33.33,0,0,1,.33-.33C251.72,184.8,252.06,184.8,252.06,184.47Z"/><path id="_Trazado_71" data-name="&lt;Trazado&gt;" class="cls-2" d="M250.06,184.8a1.23,1.23,0,0,1-1,.67C249.4,185.13,250.06,185.13,250.06,184.8Z"/><path id="_Trazado_72" data-name="&lt;Trazado&gt;" class="cls-2" d="M252.06,185.46a1.16,1.16,0,0,0-.33.67C251.39,185.8,251.72,185.8,252.06,185.46Z"/><path id="_Trazado_73" data-name="&lt;Trazado&gt;" class="cls-2" d="M245.07,185.8c-.33-.33.33,0,0,0Z"/><path id="_Trazado_74" data-name="&lt;Trazado&gt;" class="cls-2" d="M262,185.8a.33.33,0,0,1-.33.33C261.71,185.8,262,186.13,262,185.8Z"/><path id="_Trazado_75" data-name="&lt;Trazado&gt;" class="cls-2" d="M245.73,186.13h0C246.07,186.46,245.73,186.46,245.73,186.13Z"/><path id="_Trazado_76" data-name="&lt;Trazado&gt;" class="cls-2" d="M252.06,186.13h0C251.72,186.46,251.72,186.13,252.06,186.13Z"/><path id="_Trazado_77" data-name="&lt;Trazado&gt;" class="cls-2" d="M261.38,186.13a1.16,1.16,0,0,1-.67.33A1,1,0,0,0,261.38,186.13Z"/><path id="_Trazado_78" data-name="&lt;Trazado&gt;" class="cls-2" d="M260.38,186.8c-.33,0-.33.33-.67.33C260,186.8,260,186.8,260.38,186.8Z"/><path id="_Trazado_79" data-name="&lt;Trazado&gt;" class="cls-2" d="M260.38,186.8c.33,0-.33.33-.33.33a1.16,1.16,0,0,1-.67.33C259.71,187.13,260.38,187.13,260.38,186.8Z"/><path id="_Trazado_80" data-name="&lt;Trazado&gt;" class="cls-2" d="M254.72,187.13c0-.33.33,0,.67.33.33,0,.33.33.67.33s.67.33,1,.33h-.33c0-.33-.33,0-.33,0C255.72,187.46,255.39,187.13,254.72,187.13Z"/><path id="_Trazado_81" data-name="&lt;Trazado&gt;" class="cls-2" d="M246.4,187.13h0c1.33.67,2.33,1.33,3.66,2,.33,0,.33.33.67.33a1.16,1.16,0,0,0,.67.33h.33v.33h.33l.33.33h.33v.33h.33l.33.33a.33.33,0,0,1,.33.33c-.33,0-.33,0-.33-.33a.33.33,0,0,1-.33-.33l-.33-.33a.33.33,0,0,1-.33-.33c-.33-.33-.67-.33-.67-.67A16,16,0,0,1,246.4,187.13Z"/><path id="_Trazado_82" data-name="&lt;Trazado&gt;" class="cls-2" d="M247.07,187.13c0-.33.33,0,.33,0C247.4,187.46,247.07,187.13,247.07,187.13Z"/><path id="_Trazado_83" data-name="&lt;Trazado&gt;" class="cls-2" d="M252.06,187.13c.33,0-.33.33-.33.33A.33.33,0,0,0,252.06,187.13Z"/><path id="_Trazado_84" data-name="&lt;Trazado&gt;" class="cls-2" d="M247.73,187.46c-.33-.33.33,0,.67.33A1.16,1.16,0,0,1,247.73,187.46Z"/><path id="_Trazado_85" data-name="&lt;Trazado&gt;" class="cls-2" d="M248.4,187.79c0-.33.33,0,.33,0C248.73,188.13,248.4,188.13,248.4,187.79Z"/><path id="_Trazado_86" data-name="&lt;Trazado&gt;" class="cls-2" d="M252.39,187.79a.33.33,0,0,1-.33.33C252.39,188.13,252.39,188.13,252.39,187.79Z"/><path id="_Trazado_87" data-name="&lt;Trazado&gt;" class="cls-2" d="M249.06,188.13h0c.33.33,1,.33.33.33A.33.33,0,0,1,249.06,188.13Z"/><path id="_Trazado_88" data-name="&lt;Trazado&gt;" class="cls-2" d="M250.73,189.13c0-.33.33,0,.33.33Z"/><path id="_Trazado_compuesto_3" data-name="&lt;Trazado compuesto&gt;" class="cls-2" d="M253.39,162.5h0c.33,0,.33.67.33.67v2.33a.33.33,0,0,1,.33.33c0,.33-.67,0-.67.33s-.33,0-.33.33v.33c0,.33.33,0,.33,0,0,.33,0,.67.33.67v1h-.33c.33,0-.33.33-.33.67v.67h0v-1a1.16,1.16,0,0,1,.33.67c0,.33.33.67.33,1.33l.33-.33c.33.33,0,1,0,1.33-.33,0,0-.33,0-.33v.33c-.33,0,0-.33-.33-.33v-1.66a.46.46,0,0,0,0-.67h0v-.67h0v-.33h0v-.67h0v-.33A20.45,20.45,0,0,1,253.39,162.5Zm0,1.33v0Zm0,1.33v0Zm0,1.33Zm0,5Z"/></g><path class="cls-2" d="M183.51,243.37H169.2L163.54,259h-2.33l15.31-42.26L191.82,259H189.5Zm-1-2.33-6.32-17.3L169.86,241Z"/><path class="cls-2" d="M335.59,236.38a17.56,17.56,0,0,1-7-4,8.52,8.52,0,0,1-2.66-6.32,8.33,8.33,0,0,1,2.66-6,8.52,8.52,0,0,1,6.32-2.66,9.74,9.74,0,0,1,6.32,2.66,7.86,7.86,0,0,1,2,3l-2,.67a3.85,3.85,0,0,0-1.66-2.33,6,6,0,0,0-4.66-2,6.57,6.57,0,0,0-4.66,2,6,6,0,0,0-2,4.66,6.57,6.57,0,0,0,2,4.66,21.53,21.53,0,0,0,5,3.33,19.26,19.26,0,0,1,8.32,5,12.24,12.24,0,1,1-17.31,17.31,10.67,10.67,0,0,1-3.33-6.66l2.33-.67a10.33,10.33,0,0,0,3,6,9.88,9.88,0,1,0,14-14A15.21,15.21,0,0,0,335.59,236.38Z"/><path id="_Trazado_89" data-name="&lt;Trazado&gt;" class="cls-2" d="M252.39,327.56h-1.33a8.82,8.82,0,0,1,2,1.66h2A7.25,7.25,0,0,1,252.39,327.56Z"/><path id="_Trazado_compuesto_4" data-name="&lt;Trazado compuesto&gt;" class="cls-2" d="M251.39,326.9h-1.33a8.82,8.82,0,0,1,2,1.66h2A7.24,7.24,0,0,1,251.39,326.9Zm4,1.66h-1.33a14.69,14.69,0,0,0,2.66,1A5.74,5.74,0,0,1,255.39,328.56Z"/><path id="_Trazado_compuesto_5" data-name="&lt;Trazado compuesto&gt;" class="cls-2" d="M282,327.23c-9.65-.33-12.31-.67-12.31-.67s-3.33-8-9-9.65-4.66-4-4.66-4,1.66-2.33,5-.33,4.66,3,6,3c1.33-.33,1-2-.67-3s-6-3.33-10.32-3.33-9.65-3.33-9.65-3.33a6.53,6.53,0,0,0-4.33-1.66,9.85,9.85,0,0,0-6,2c-1.33,1-3.66,2.33-3.66,2.33l-.67,1s3.66-1,5.32-.67,5,2.33,5,3a6.42,6.42,0,0,1-1,3.33c-.67.67-2.33,4-2.33,5.32s0,4.66,1,5a2.25,2.25,0,0,0,3-2.33c0-2.66-1-4,.67-5.32,1.33-1.33,3.66,4,3.66,4a18.28,18.28,0,0,0,.33,5.66l-4.66.33s-12.65,0-15.64.33-13.64,3.66,1,5.32,33.28,1,42.6,0,11.65-1,15-2.33S291.66,327.56,282,327.23Zm-42.26-20c-.33,0-.67-.33-.67-1,0-.33.33-1,.67-1s.67.33.67,1S240.08,307.26,239.75,307.26Zm4.33,10.32c-1-.67-1,.67-1.66,1.33-.67,1,0,3.33,0,3.33s-.33,3-1,3c-.67.33-.67-2-.67-3.33s1-3.33,1.66-5a15.61,15.61,0,0,1,2-3.33l4.66,5A43.7,43.7,0,0,1,244.07,317.58Zm2,7v-.67a10.62,10.62,0,0,1,2.33,2c.33.67,1,.67,2,1.33h1.33c-.33-.33-.67-.67-.67-1a4,4,0,0,1-.33-3.33,9.55,9.55,0,0,0,2.66,4.33l1,1,.67.67a3.36,3.36,0,0,1-1.66-.67h-1a4.6,4.6,0,0,1,1,1.33c.67,1,0,.67-.67.67-.33.33-1-.33-2.66-2h0c-.33-.33-1.66-.67-2-1A16.69,16.69,0,0,1,246.07,324.57Zm18.64,8a64.63,64.63,0,0,1-12.65,1c-5.66,0-17.3-.67-23-1s-5-2-2-2.66,11.65-.67,11.65-.67l9.32-.33c1,1.66,3,3.33,4.33,3.33a7.43,7.43,0,0,0,4-2.33c.33-.33,1-1.33,3.66-.67s4.33,2.33,6.32,3h0A3.63,3.63,0,0,0,264.7,332.55Zm1-3c-2-.33-2.33-1-3.33-1.66a1.22,1.22,0,0,0-1-.33c-1.33-.67-2.33.33-4.66.67a3,3,0,0,1-2.33-1c-1-.67-1.66-2-2.33-2.66-1-1-.67-3.66-2.66-6.66-1.66-3-6.66-8.65-6.66-8.65a.65.65,0,0,1,.67-.67c.67,0,1,0,1.33-1s1-1,2-.67a9.39,9.39,0,0,1,3.66,2.33c1.33,1.33,2.33,1,2.33,1s1-.33,5.32,0a17.19,17.19,0,0,1,8.32,2.66c1.66,1-.67,1.33-1.66.33s-5-1.66-6.32-2a4.37,4.37,0,0,0-4,1c-1.33,1,1.33,2.66,3.66,3.66a46.62,46.62,0,0,1,7.32,5.66c1,.67,2,3,2.66,4.66.33.33.33,1,.67,1.33a1.64,1.64,0,0,1,.33,1C269.7,329.56,268,329.89,265.7,329.56Zm18.64,1.66h-9L272,329.56a7,7,0,0,0-1.33-2s8.65-.33,14.64,0C291.66,328.23,286.33,331.22,284.34,331.22Z"/><path id="_Trazado_90" data-name="&lt;Trazado&gt;" class="cls-2" d="M254.72,328.89a3.36,3.36,0,0,1-1.66-.67h1C254.39,328.89,254.72,328.89,254.72,328.89Z"/><rect id="_Trazado_91" data-name="&lt;Trazado&gt;" class="cls-2" x="251.66" y="94.55" width="3.66" height="299.16" transform="translate(-98.38 250.75) rotate(-45)"/><rect id="_Trazado_92" data-name="&lt;Trazado&gt;" class="cls-2" x="106.92" y="242.25" width="299.16" height="3.66" transform="translate(-97.46 252.91) rotate(-45.01)"/></svg>